<svg width="375" height="374.999991" xmlns="http://www.w3.org/2000/svg" preserveAspectRatio="xMidYMid meet">
 <defs>
  <g id="svg_1"/>
  <clipPath id="eb46b3915b">
   <path id="svg_2" clip-rule="nonzero" d="m166.01172,117.16797l53.98828,0l0,86.83203l-53.98828,0l0,-86.83203zm0,0"/>
  </clipPath>
 </defs>
 <g>
  <title>background</title>
  <rect fill="none" id="canvas_background" height="402" width="582" y="-1" x="-1"/>
 </g>
 <g>
  <title>Layer 1</title>
  <g id="svg_3" fill="#0b2a32">
   <g id="svg_4">
    <g id="svg_5">
     <path fill="#ffffff" id="svg_6" d="m171.0389,226.997813c1.15625,0.38672 2.07031,1.02344 2.75,1.90625c0.6875,0.88672 1.03125,1.99219 1.03125,3.3125c0,1.82422 -0.70313,3.23047 -2.10938,4.21875c-1.39844,0.99219 -3.43359,1.48438 -6.10937,1.48438l-10.45313,0l0,-21l9.84375,0c2.47656,0 4.39063,0.48437 5.73438,1.45312c1.34375,0.96875 2.01562,2.30469 2.01562,4c0,1.04297 -0.24609,1.96485 -0.73437,2.76563c-0.48047,0.80469 -1.13672,1.42187 -1.96875,1.85937zm-10.98438,-7.01562l0,5.78125l5.51563,0c1.36328,0 2.41015,-0.24219 3.14062,-0.73438c0.72656,-0.48828 1.09375,-1.20312 1.09375,-2.14062c0,-0.95703 -0.36719,-1.67969 -1.09375,-2.17188c-0.73047,-0.48828 -1.77734,-0.73437 -3.14062,-0.73437l-5.51563,0zm6.29688,14.875c3.01953,0 4.53125,-1.00781 4.53125,-3.03125c0,-2.01953 -1.51172,-3.03125 -4.53125,-3.03125l-6.29688,0l0,6.0625l6.29688,0zm0,0"/>
    </g>
   </g>
  </g>
  <g id="svg_7" fill="#0b2a32">
   <g id="svg_8">
    <g id="svg_9">
     <path fill="#ffffff" id="svg_10" d="m201.696991,234.622813l0,3.29688l-15.48437,0l0,-2.60938l8.34375,-7.92187c0.9375,-0.89453 1.57031,-1.67578 1.90625,-2.34375c0.33203,-0.67578 0.5,-1.34375 0.5,-2c0,-0.97656 -0.33594,-1.72656 -1,-2.25c-0.65625,-0.51953 -1.625,-0.78125 -2.90625,-0.78125c-2.13672,0 -3.77735,0.73047 -4.92188,2.1875l-2.73437,-2.09375c0.82031,-1.10156 1.92578,-1.95703 3.3125,-2.5625c1.39453,-0.61328 2.95312,-0.92188 4.67187,-0.92188c2.28125,0 4.09766,0.54297 5.45313,1.625c1.36328,1.07422 2.04687,2.54297 2.04687,4.40625c0,1.13672 -0.24219,2.20313 -0.71875,3.20313c-0.48047,1 -1.40234,2.14062 -2.76562,3.42187l-5.60938,5.34375l9.90625,0zm0,0"/>
    </g>
   </g>
  </g>
  <g id="svg_11" fill="#0b2a32">
   <g id="svg_12">
    <g id="svg_13">
     <path fill="#ffffff" id="svg_14" d="m229.328862,226.997813c1.15625,0.38672 2.07031,1.02344 2.75,1.90625c0.6875,0.88672 1.03125,1.99219 1.03125,3.3125c0,1.82422 -0.70313,3.23047 -2.10938,4.21875c-1.39844,0.99219 -3.43359,1.48438 -6.10937,1.48438l-10.45313,0l0,-21l9.84375,0c2.47656,0 4.39063,0.48437 5.73438,1.45312c1.34375,0.96875 2.01562,2.30469 2.01562,4c0,1.04297 -0.24609,1.96485 -0.73437,2.76563c-0.48047,0.80469 -1.13672,1.42187 -1.96875,1.85937zm-10.98438,-7.01562l0,5.78125l5.51563,0c1.36328,0 2.41015,-0.24219 3.14062,-0.73438c0.72656,-0.48828 1.09375,-1.20312 1.09375,-2.14062c0,-0.95703 -0.36719,-1.67969 -1.09375,-2.17188c-0.73047,-0.48828 -1.77734,-0.73437 -3.14062,-0.73437l-5.51563,0zm6.29688,14.875c3.01953,0 4.53125,-1.00781 4.53125,-3.03125c0,-2.01953 -1.51172,-3.03125 -4.53125,-3.03125l-6.29688,0l0,6.0625l6.29688,0zm0,0"/>
    </g>
   </g>
  </g>
  <g id="svg_15" fill="#002b44">
   <g id="svg_16">
    <g id="svg_17">
     <path fill="#ffffff" id="svg_18" d="m155.460561,247.920588l1.28125,0l0,6.89063l-1.28125,0l0,-6.89063zm0,0"/>
    </g>
   </g>
  </g>
  <g id="svg_19" fill="#002b44">
   <g id="svg_20">
    <g id="svg_21">
     <path fill="#ffffff" id="svg_22" d="m167.681051,247.920588l0,6.89063l-1.04688,0l-3.8125,-4.67188l0,4.67188l-1.26562,0l0,-6.89063l1.0625,0l3.79687,4.67188l0,-4.67188l1.26563,0zm0,0"/>
    </g>
   </g>
  </g>
  <g id="svg_23" fill="#002b44">
   <g id="svg_24">
    <g id="svg_25">
     <path fill="#ffffff" id="svg_26" d="m173.891073,248.998718l-2.28125,0l0,-1.07813l5.84375,0l0,1.07813l-2.28125,0l0,5.8125l-1.28125,0l0,-5.8125zm0,0"/>
    </g>
   </g>
  </g>
  <g id="svg_27" fill="#002b44">
   <g id="svg_28">
    <g id="svg_29"/>
   </g>
  </g>
  <g id="svg_30" fill="#002b44">
   <g id="svg_31">
    <g id="svg_32">
     <path fill="#ffffff" id="svg_33" d="m191.741409,251.279968l1.21875,0l0,2.75c-0.35547,0.28125 -0.77344,0.5 -1.25,0.65625c-0.46875,0.14453 -0.95312,0.21875 -1.45312,0.21875c-0.69922,0 -1.33594,-0.14844 -1.90625,-0.45313c-0.5625,-0.30078 -1.00782,-0.72265 -1.32813,-1.26562c-0.3125,-0.53906 -0.46875,-1.14844 -0.46875,-1.82813c0,-0.66406 0.15625,-1.26953 0.46875,-1.8125c0.32031,-0.53906 0.76563,-0.96093 1.32813,-1.26562c0.57031,-0.30078 1.21093,-0.45313 1.92187,-0.45313c0.58203,0 1.10938,0.09375 1.57813,0.28125c0.47656,0.1875 0.8789,0.46875 1.20312,0.84375l-0.8125,0.78125c-0.53125,-0.51953 -1.16797,-0.78125 -1.90625,-0.78125c-0.48047,0 -0.91406,0.10547 -1.29687,0.3125c-0.375,0.19922 -0.67188,0.48047 -0.89063,0.84375c-0.21094,0.36719 -0.3125,0.78125 -0.3125,1.25c0,0.46875 0.10156,0.88672 0.3125,1.25c0.21875,0.36719 0.51563,0.65235 0.89063,0.85938c0.38281,0.21094 0.8164,0.3125 1.29687,0.3125c0.53125,0 1,-0.11328 1.40625,-0.34375l0,-2.15625zm0,0"/>
    </g>
   </g>
  </g>
  <g id="svg_34" fill="#002b44">
   <g id="svg_35">
    <g id="svg_36">
     <path fill="#ffffff" id="svg_37" d="m202.108612,254.811218l-1.40625,-2.01563c-0.0625,0 -0.15234,0 -0.26562,0l-1.5625,0l0,2.01563l-1.28125,0l0,-6.89063l2.84375,0c0.59375,0 1.10937,0.10157 1.54687,0.29688c0.44531,0.19922 0.78516,0.48047 1.01563,0.84375c0.23828,0.36719 0.35937,0.80469 0.35937,1.3125c0,0.52344 -0.125,0.96875 -0.375,1.34375c-0.25,0.36719 -0.60937,0.64062 -1.07812,0.82812l1.57812,2.26563l-1.375,0zm-0.03125,-4.4375c0,-0.4375 -0.14844,-0.77344 -0.4375,-1.01563c-0.29297,-0.23828 -0.71484,-0.35937 -1.26562,-0.35937l-1.5,0l0,2.75l1.5,0c0.55078,0 0.97265,-0.11719 1.26562,-0.35938c0.28906,-0.23828 0.4375,-0.57812 0.4375,-1.01562zm0,0"/>
    </g>
   </g>
  </g>
  <g id="svg_38" fill="#002b44">
   <g id="svg_39">
    <g id="svg_40">
     <path fill="#ffffff" id="svg_41" d="m210.962835,254.904968c-0.69922,0 -1.33594,-0.14844 -1.90625,-0.45313c-0.5625,-0.30078 -1.00782,-0.72265 -1.32813,-1.26562c-0.3125,-0.53906 -0.46875,-1.14844 -0.46875,-1.82813c0,-0.66406 0.15625,-1.26953 0.46875,-1.8125c0.32031,-0.53906 0.76563,-0.96093 1.32813,-1.26562c0.57031,-0.30078 1.20703,-0.45313 1.90625,-0.45313c0.70703,0 1.34375,0.15235 1.90625,0.45313c0.5625,0.30469 1.0039,0.72656 1.32812,1.26562c0.32031,0.54297 0.48438,1.14844 0.48438,1.8125c0,0.67969 -0.16407,1.28907 -0.48438,1.82813c-0.32422,0.54297 -0.76562,0.96484 -1.32812,1.26562c-0.5625,0.30469 -1.19922,0.45313 -1.90625,0.45313zm0,-1.125c0.45703,0 0.86718,-0.09766 1.23437,-0.29688c0.375,-0.20703 0.66406,-0.49218 0.875,-0.85937c0.20703,-0.375 0.3125,-0.79688 0.3125,-1.26563c0,-0.45703 -0.10547,-0.86718 -0.3125,-1.23437c-0.21094,-0.375 -0.5,-0.66016 -0.875,-0.85938c-0.36719,-0.20703 -0.77734,-0.3125 -1.23437,-0.3125c-0.46094,0 -0.8711,0.10547 -1.23438,0.3125c-0.36719,0.19922 -0.65625,0.48438 -0.875,0.85938c-0.21094,0.36719 -0.3125,0.77734 -0.3125,1.23437c0,0.46875 0.10156,0.89063 0.3125,1.26563c0.21875,0.36719 0.50781,0.65234 0.875,0.85937c0.36328,0.19922 0.77344,0.29688 1.23438,0.29688zm0,0"/>
    </g>
   </g>
  </g>
  <g id="svg_42" fill="#002b44">
   <g id="svg_43">
    <g id="svg_44">
     <path fill="#ffffff" id="svg_45" d="m221.956594,254.904968c-0.94922,0 -1.69532,-0.26562 -2.23438,-0.79688c-0.53125,-0.53125 -0.79687,-1.29687 -0.79687,-2.29687l0,-3.89063l1.28125,0l0,3.84375c0,1.34375 0.58203,2.01563 1.75,2.01563c1.16406,0 1.75,-0.67188 1.75,-2.01563l0,-3.84375l1.26562,0l0,3.89063c0,1 -0.26562,1.76562 -0.79687,2.29687c-0.53125,0.53125 -1.27344,0.79688 -2.21875,0.79688zm0,0"/>
    </g>
   </g>
  </g>
  <g id="svg_46" fill="#002b44">
   <g id="svg_47">
    <g id="svg_48">
     <path fill="#ffffff" id="svg_49" d="m232.553624,247.920588c0.59375,0 1.10937,0.10157 1.54687,0.29688c0.44531,0.19922 0.78516,0.48047 1.01563,0.84375c0.23828,0.36719 0.35937,0.80469 0.35937,1.3125c0,0.5 -0.12109,0.9375 -0.35937,1.3125c-0.23047,0.36719 -0.57032,0.64844 -1.01563,0.84375c-0.4375,0.19922 -0.95312,0.29687 -1.54687,0.29687l-1.5625,0l0,1.98438l-1.28125,0l0,-6.89063l2.84375,0zm-0.0625,3.8125c0.55078,0 0.97265,-0.11328 1.26562,-0.34375c0.28906,-0.23828 0.4375,-0.57812 0.4375,-1.01562c0,-0.4375 -0.14844,-0.77344 -0.4375,-1.01563c-0.29297,-0.23828 -0.71484,-0.35937 -1.26562,-0.35937l-1.5,0l0,2.73437l1.5,0zm0,0"/>
    </g>
   </g>
  </g>
  <g id="svg_50" clip-path="url(#eb46b3915b)">
   <path id="svg_51" fill-rule="nonzero" d="m169.05469,117.5l49.6875,28.60547c0.9375,0.51953 1.26953,1.68359 0.73047,2.57031c-0.20703,0.3086 -0.46875,0.57031 -0.73047,0.72656l-19.28906,11.06641l19.28906,11.12109c0.9375,0.51954 1.26953,1.6836 0.73047,2.56641c-0.20703,0.3125 -0.46875,0.57422 -0.73047,0.73047l-49.84375,28.72656c-0.88672,0.52344 -2.10156,0.21094 -2.6211,-0.72656c-0.15625,-0.26172 -0.21093,-0.625 -0.21093,-0.9375l-0.05078,0l0,-13.85938l8.8789,-5.08593l5.42188,-3.15625l-1.42188,-2.20313l6.87891,0.67578l-2.20703,6.5586l-1.14453,-1.82032l-12.56641,7.23438l0,8.34375l44.10937,-25.39844l-11.9414,-6.87109l-6.35938,-3.67578l-3.83984,-2.20313l2.88281,-1.63281l19.23828,-11.11719l-44.08984,-25.41406l0,33.63672l-3.83984,2.27344l0,-39.20704c0,-1.05859 0.88671,-1.89062 1.94531,-1.89062c0.41797,0 0.78125,0.10156 1.09375,0.36328zm-3.03906,66.23438l0,-8.39844l8.8789,-5.08203l10.67188,-6.14063l-1.16407,-1.73437l6.88282,0.67578l-2.15625,6.55859l-1.53125,-2.30859l-17.75782,10.23437l0,3.99219l-3.82421,2.20313zm0,-12.75l0,-8.39844l8.8789,-5.08203l21.5,-12.38672l-1.32031,-2.04688l6.87891,0.73047l-2.15235,6.50391l-1.32031,-1.9961l-28.66016,16.48047l0,3.99219l-3.80468,2.20313zm0,0" fill="#7818ed"/>
  </g>
  <path id="svg_52" stroke-miterlimit="4" stroke-width="4" stroke="#ffffff" d="m132.066405,270.761717l120.000008,0" fill="none"/>
  <path id="svg_53" stroke-miterlimit="4" stroke-width="4" stroke="#ffffff" d="m133.003905,104.242188l120.000008,0" fill="none"/>
  <path id="svg_54" stroke-miterlimit="4" stroke-width="4" stroke="#ffffff" d="m133.187499,272.257814l-0.187502,-169.503989" fill="none"/>
  <path id="svg_55" stroke-miterlimit="4" stroke-width="4" stroke="#ffffff" d="m253.183591,272.253906l-1.124997,-169.507909" fill="none"/>
 </g>
</svg>