<svg xmlns="http://www.w3.org/2000/svg" xmlns:xlink="http://www.w3.org/1999/xlink" width="500" zoomAndPan="magnify" viewBox="0 0 375 374.999991" height="500" preserveAspectRatio="xMidYMid meet" version="1.0"><defs><g/><clipPath id="eb46b3915b"><path d="M 166.011719 117.167969 L 220 117.167969 L 220 204 L 166.011719 204 Z M 166.011719 117.167969 " clip-rule="nonzero"/></clipPath></defs><g fill="#0b2a32" fill-opacity="1"><g transform="translate(153.335766, 237.9197)"><g><path d="M 17.703125 -10.921875 C 18.859375 -10.535156 19.773438 -9.898438 20.453125 -9.015625 C 21.140625 -8.128906 21.484375 -7.023438 21.484375 -5.703125 C 21.484375 -3.878906 20.78125 -2.472656 19.375 -1.484375 C 17.976562 -0.492188 15.941406 0 13.265625 0 L 2.8125 0 L 2.8125 -21 L 12.65625 -21 C 15.132812 -21 17.046875 -20.515625 18.390625 -19.546875 C 19.734375 -18.578125 20.40625 -17.242188 20.40625 -15.546875 C 20.40625 -14.503906 20.160156 -13.582031 19.671875 -12.78125 C 19.191406 -11.976562 18.535156 -11.359375 17.703125 -10.921875 Z M 6.71875 -17.9375 L 6.71875 -12.15625 L 12.234375 -12.15625 C 13.597656 -12.15625 14.644531 -12.398438 15.375 -12.890625 C 16.101562 -13.378906 16.46875 -14.09375 16.46875 -15.03125 C 16.46875 -15.988281 16.101562 -16.710938 15.375 -17.203125 C 14.644531 -17.691406 13.597656 -17.9375 12.234375 -17.9375 Z M 13.015625 -3.0625 C 16.035156 -3.0625 17.546875 -4.070312 17.546875 -6.09375 C 17.546875 -8.113281 16.035156 -9.125 13.015625 -9.125 L 6.71875 -9.125 L 6.71875 -3.0625 Z M 13.015625 -3.0625 "/></g></g></g><g fill="#0b2a32" fill-opacity="1"><g transform="translate(185.165743, 237.9197)"><g><path d="M 16.53125 -3.296875 L 16.53125 0 L 1.046875 0 L 1.046875 -2.609375 L 9.390625 -10.53125 C 10.328125 -11.425781 10.960938 -12.207031 11.296875 -12.875 C 11.628906 -13.550781 11.796875 -14.21875 11.796875 -14.875 C 11.796875 -15.851562 11.460938 -16.601562 10.796875 -17.125 C 10.140625 -17.644531 9.171875 -17.90625 7.890625 -17.90625 C 5.753906 -17.90625 4.113281 -17.175781 2.96875 -15.71875 L 0.234375 -17.8125 C 1.054688 -18.914062 2.160156 -19.769531 3.546875 -20.375 C 4.941406 -20.988281 6.5 -21.296875 8.21875 -21.296875 C 10.5 -21.296875 12.316406 -20.753906 13.671875 -19.671875 C 15.035156 -18.597656 15.71875 -17.128906 15.71875 -15.265625 C 15.71875 -14.128906 15.476562 -13.0625 15 -12.0625 C 14.519531 -11.0625 13.597656 -9.921875 12.234375 -8.640625 L 6.625 -3.296875 Z M 16.53125 -3.296875 "/></g></g></g><g fill="#0b2a32" fill-opacity="1"><g transform="translate(211.625729, 237.9197)"><g><path d="M 17.703125 -10.921875 C 18.859375 -10.535156 19.773438 -9.898438 20.453125 -9.015625 C 21.140625 -8.128906 21.484375 -7.023438 21.484375 -5.703125 C 21.484375 -3.878906 20.78125 -2.472656 19.375 -1.484375 C 17.976562 -0.492188 15.941406 0 13.265625 0 L 2.8125 0 L 2.8125 -21 L 12.65625 -21 C 15.132812 -21 17.046875 -20.515625 18.390625 -19.546875 C 19.734375 -18.578125 20.40625 -17.242188 20.40625 -15.546875 C 20.40625 -14.503906 20.160156 -13.582031 19.671875 -12.78125 C 19.191406 -11.976562 18.535156 -11.359375 17.703125 -10.921875 Z M 6.71875 -17.9375 L 6.71875 -12.15625 L 12.234375 -12.15625 C 13.597656 -12.15625 14.644531 -12.398438 15.375 -12.890625 C 16.101562 -13.378906 16.46875 -14.09375 16.46875 -15.03125 C 16.46875 -15.988281 16.101562 -16.710938 15.375 -17.203125 C 14.644531 -17.691406 13.597656 -17.9375 12.234375 -17.9375 Z M 13.015625 -3.0625 C 16.035156 -3.0625 17.546875 -4.070312 17.546875 -6.09375 C 17.546875 -8.113281 16.035156 -9.125 13.015625 -9.125 L 6.71875 -9.125 L 6.71875 -3.0625 Z M 13.015625 -3.0625 "/></g></g></g><g fill="#002b44" fill-opacity="1"><g transform="translate(154.538681, 254.811223)"><g><path d="M 0.921875 -6.890625 L 2.203125 -6.890625 L 2.203125 0 L 0.921875 0 Z M 0.921875 -6.890625 "/></g></g></g><g fill="#002b44" fill-opacity="1"><g transform="translate(160.634177, 254.811223)"><g><path d="M 7.046875 -6.890625 L 7.046875 0 L 6 0 L 2.1875 -4.671875 L 2.1875 0 L 0.921875 0 L 0.921875 -6.890625 L 1.984375 -6.890625 L 5.78125 -2.21875 L 5.78125 -6.890625 Z M 7.046875 -6.890625 "/></g></g></g><g fill="#002b44" fill-opacity="1"><g transform="translate(171.562937, 254.811223)"><g><path d="M 2.328125 -5.8125 L 0.046875 -5.8125 L 0.046875 -6.890625 L 5.890625 -6.890625 L 5.890625 -5.8125 L 3.609375 -5.8125 L 3.609375 0 L 2.328125 0 Z M 2.328125 -5.8125 "/></g></g></g><g fill="#002b44" fill-opacity="1"><g transform="translate(180.444201, 254.811223)"><g/></g></g><g fill="#002b44" fill-opacity="1"><g transform="translate(186.116413, 254.811223)"><g><path d="M 5.625 -3.53125 L 6.84375 -3.53125 L 6.84375 -0.78125 C 6.488281 -0.5 6.070312 -0.28125 5.59375 -0.125 C 5.125 0.0195312 4.640625 0.09375 4.140625 0.09375 C 3.441406 0.09375 2.804688 -0.0546875 2.234375 -0.359375 C 1.671875 -0.660156 1.226562 -1.082031 0.90625 -1.625 C 0.59375 -2.164062 0.4375 -2.773438 0.4375 -3.453125 C 0.4375 -4.117188 0.59375 -4.722656 0.90625 -5.265625 C 1.226562 -5.804688 1.671875 -6.226562 2.234375 -6.53125 C 2.804688 -6.832031 3.445312 -6.984375 4.15625 -6.984375 C 4.738281 -6.984375 5.265625 -6.890625 5.734375 -6.703125 C 6.210938 -6.515625 6.613281 -6.234375 6.9375 -5.859375 L 6.125 -5.078125 C 5.59375 -5.597656 4.957031 -5.859375 4.21875 -5.859375 C 3.738281 -5.859375 3.304688 -5.753906 2.921875 -5.546875 C 2.546875 -5.347656 2.25 -5.066406 2.03125 -4.703125 C 1.820312 -4.335938 1.71875 -3.921875 1.71875 -3.453125 C 1.71875 -2.984375 1.820312 -2.566406 2.03125 -2.203125 C 2.25 -1.835938 2.546875 -1.550781 2.921875 -1.34375 C 3.304688 -1.132812 3.738281 -1.03125 4.21875 -1.03125 C 4.75 -1.03125 5.21875 -1.144531 5.625 -1.375 Z M 5.625 -3.53125 "/></g></g></g><g fill="#002b44" fill-opacity="1"><g transform="translate(196.671109, 254.811223)"><g><path d="M 5.4375 0 L 4.03125 -2.015625 C 3.96875 -2.015625 3.878906 -2.015625 3.765625 -2.015625 L 2.203125 -2.015625 L 2.203125 0 L 0.921875 0 L 0.921875 -6.890625 L 3.765625 -6.890625 C 4.359375 -6.890625 4.875 -6.789062 5.3125 -6.59375 C 5.757812 -6.394531 6.097656 -6.113281 6.328125 -5.75 C 6.566406 -5.382812 6.6875 -4.945312 6.6875 -4.4375 C 6.6875 -3.914062 6.5625 -3.46875 6.3125 -3.09375 C 6.0625 -2.726562 5.703125 -2.453125 5.234375 -2.265625 L 6.8125 0 Z M 5.40625 -4.4375 C 5.40625 -4.875 5.257812 -5.210938 4.96875 -5.453125 C 4.675781 -5.691406 4.253906 -5.8125 3.703125 -5.8125 L 2.203125 -5.8125 L 2.203125 -3.0625 L 3.703125 -3.0625 C 4.253906 -3.0625 4.675781 -3.179688 4.96875 -3.421875 C 5.257812 -3.660156 5.40625 -4 5.40625 -4.4375 Z M 5.40625 -4.4375 "/></g></g></g><g fill="#002b44" fill-opacity="1"><g transform="translate(206.822207, 254.811223)"><g><path d="M 4.140625 0.09375 C 3.441406 0.09375 2.804688 -0.0546875 2.234375 -0.359375 C 1.671875 -0.660156 1.226562 -1.082031 0.90625 -1.625 C 0.59375 -2.164062 0.4375 -2.773438 0.4375 -3.453125 C 0.4375 -4.117188 0.59375 -4.722656 0.90625 -5.265625 C 1.226562 -5.804688 1.671875 -6.226562 2.234375 -6.53125 C 2.804688 -6.832031 3.441406 -6.984375 4.140625 -6.984375 C 4.847656 -6.984375 5.484375 -6.832031 6.046875 -6.53125 C 6.609375 -6.226562 7.050781 -5.804688 7.375 -5.265625 C 7.695312 -4.722656 7.859375 -4.117188 7.859375 -3.453125 C 7.859375 -2.773438 7.695312 -2.164062 7.375 -1.625 C 7.050781 -1.082031 6.609375 -0.660156 6.046875 -0.359375 C 5.484375 -0.0546875 4.847656 0.09375 4.140625 0.09375 Z M 4.140625 -1.03125 C 4.597656 -1.03125 5.007812 -1.128906 5.375 -1.328125 C 5.75 -1.535156 6.039062 -1.820312 6.25 -2.1875 C 6.457031 -2.5625 6.5625 -2.984375 6.5625 -3.453125 C 6.5625 -3.910156 6.457031 -4.320312 6.25 -4.6875 C 6.039062 -5.0625 5.75 -5.347656 5.375 -5.546875 C 5.007812 -5.753906 4.597656 -5.859375 4.140625 -5.859375 C 3.679688 -5.859375 3.269531 -5.753906 2.90625 -5.546875 C 2.539062 -5.347656 2.25 -5.0625 2.03125 -4.6875 C 1.820312 -4.320312 1.71875 -3.910156 1.71875 -3.453125 C 1.71875 -2.984375 1.820312 -2.5625 2.03125 -2.1875 C 2.25 -1.820312 2.539062 -1.535156 2.90625 -1.328125 C 3.269531 -1.128906 3.679688 -1.03125 4.140625 -1.03125 Z M 4.140625 -1.03125 "/></g></g></g><g fill="#002b44" fill-opacity="1"><g transform="translate(218.065963, 254.811223)"><g><path d="M 3.890625 0.09375 C 2.941406 0.09375 2.195312 -0.171875 1.65625 -0.703125 C 1.125 -1.234375 0.859375 -2 0.859375 -3 L 0.859375 -6.890625 L 2.140625 -6.890625 L 2.140625 -3.046875 C 2.140625 -1.703125 2.722656 -1.03125 3.890625 -1.03125 C 5.054688 -1.03125 5.640625 -1.703125 5.640625 -3.046875 L 5.640625 -6.890625 L 6.90625 -6.890625 L 6.90625 -3 C 6.90625 -2 6.640625 -1.234375 6.109375 -0.703125 C 5.578125 -0.171875 4.835938 0.09375 3.890625 0.09375 Z M 3.890625 0.09375 "/></g></g></g><g fill="#002b44" fill-opacity="1"><g transform="translate(228.787995, 254.811223)"><g><path d="M 3.765625 -6.890625 C 4.359375 -6.890625 4.875 -6.789062 5.3125 -6.59375 C 5.757812 -6.394531 6.097656 -6.113281 6.328125 -5.75 C 6.566406 -5.382812 6.6875 -4.945312 6.6875 -4.4375 C 6.6875 -3.9375 6.566406 -3.5 6.328125 -3.125 C 6.097656 -2.757812 5.757812 -2.476562 5.3125 -2.28125 C 4.875 -2.082031 4.359375 -1.984375 3.765625 -1.984375 L 2.203125 -1.984375 L 2.203125 0 L 0.921875 0 L 0.921875 -6.890625 Z M 3.703125 -3.078125 C 4.253906 -3.078125 4.675781 -3.191406 4.96875 -3.421875 C 5.257812 -3.660156 5.40625 -4 5.40625 -4.4375 C 5.40625 -4.875 5.257812 -5.210938 4.96875 -5.453125 C 4.675781 -5.691406 4.253906 -5.8125 3.703125 -5.8125 L 2.203125 -5.8125 L 2.203125 -3.078125 Z M 3.703125 -3.078125 "/></g></g></g><g clip-path="url(#eb46b3915b)"><path fill="#7818ed" d="M 169.054688 117.5 L 218.742188 146.105469 C 219.679688 146.625 220.011719 147.789062 219.472656 148.675781 C 219.265625 148.984375 219.003906 149.246094 218.742188 149.402344 L 199.453125 160.46875 L 218.742188 171.589844 C 219.679688 172.109375 220.011719 173.273438 219.472656 174.15625 C 219.265625 174.46875 219.003906 174.730469 218.742188 174.886719 L 168.898438 203.613281 C 168.011719 204.136719 166.796875 203.824219 166.277344 202.886719 C 166.121094 202.625 166.066406 202.261719 166.066406 201.949219 L 166.015625 201.949219 L 166.015625 188.089844 L 174.894531 183.003906 L 180.316406 179.847656 L 178.894531 177.644531 L 185.773438 178.320312 L 183.566406 184.878906 L 182.421875 183.058594 L 169.855469 190.292969 L 169.855469 198.636719 L 213.964844 173.238281 L 202.023438 166.367188 L 195.664062 162.691406 L 191.824219 160.488281 L 194.707031 158.855469 L 213.945312 147.738281 L 169.855469 122.324219 L 169.855469 155.960938 L 166.015625 158.234375 L 166.015625 119.027344 C 166.015625 117.96875 166.902344 117.136719 167.960938 117.136719 C 168.378906 117.136719 168.742188 117.238281 169.054688 117.5 Z M 166.015625 183.734375 L 166.015625 175.335938 L 174.894531 170.253906 L 185.566406 164.113281 L 184.402344 162.378906 L 191.285156 163.054688 L 189.128906 169.613281 L 187.597656 167.304688 L 169.839844 177.539062 L 169.839844 181.53125 Z M 166.015625 170.984375 L 166.015625 162.585938 L 174.894531 157.503906 L 196.394531 145.117188 L 195.074219 143.070312 L 201.953125 143.800781 L 199.800781 150.304688 L 198.480469 148.308594 L 169.820312 164.789062 L 169.820312 168.78125 Z M 166.015625 170.984375 " fill-opacity="1" fill-rule="nonzero"/></g><path stroke-linecap="butt" transform="matrix(0.75, 0, 0, 0.75, 132.064537, 269.262287)" fill="none" stroke-linejoin="miter" d="M 0.00249283 1.999242 L 160.002503 1.999242 " stroke="#002b44" stroke-width="4" stroke-opacity="1" stroke-miterlimit="4"/><path stroke-linecap="butt" transform="matrix(0.75, 0, 0, 0.75, 133.002022, 102.742736)" fill="none" stroke-linejoin="miter" d="M 0.00251211 1.999269 L 160.002523 1.999269 " stroke="#002b44" stroke-width="4" stroke-opacity="1" stroke-miterlimit="4"/><path stroke-linecap="butt" transform="matrix(-0.000829576, -0.749948, 0.749999, -0.000829634, 131.687252, 272.258274)" fill="none" stroke-linejoin="miter" d="M -0.00159734 2.00033 L 226.019386 2.000333 " stroke="#002b44" stroke-width="4" stroke-opacity="1" stroke-miterlimit="4"/><path stroke-linecap="butt" transform="matrix(-0.00497688, -0.749932, 0.749983, -0.00497723, 251.684578, 272.263929)" fill="none" stroke-linejoin="miter" d="M 0.0000988445 1.998733 L 226.031138 1.998639 " stroke="#002b44" stroke-width="4" stroke-opacity="1" stroke-miterlimit="4"/></svg>