<svg xmlns="http://www.w3.org/2000/svg" xmlns:xlink="http://www.w3.org/1999/xlink" width="500" zoomAndPan="magnify" viewBox="0 0 375 374.999991" height="500" preserveAspectRatio="xMidYMid meet" version="1.0"><defs><g/><clipPath id="36411bbfd4"><path d="M 118.6875 166.75 L 148.6875 166.75 L 148.6875 208 L 118.6875 208 Z M 118.6875 166.75 " clip-rule="nonzero"/></clipPath></defs><rect x="-37.5" width="450" fill="#ffffff" y="-37.499999" height="449.999989" fill-opacity="1"/><rect x="-37.5" width="450" fill="#ffffff" y="-37.499999" height="449.999989" fill-opacity="1"/><rect x="-37.5" width="450" fill="#002b44" y="-37.499999" height="449.999989" fill-opacity="1"/><g clip-path="url(#36411bbfd4)"><path fill="#7818ed" d="M 118.6875 174.199219 C 118.6875 171.730469 118.6875 169.261719 118.6875 166.765625 C 128.699219 173.648438 138.675781 180.503906 148.6875 187.390625 C 138.675781 194.246094 128.699219 201.101562 118.6875 207.988281 C 118.6875 205.519531 118.6875 203.050781 118.6875 200.613281 L 137.914062 187.421875 Z M 118.6875 174.199219 " fill-opacity="1" fill-rule="nonzero"/></g><g fill="#ffffff" fill-opacity="1"><g transform="translate(145.942481, 209.25145)"><g><path d="M 36.671875 -22.625 C 39.078125 -21.832031 40.984375 -20.515625 42.390625 -18.671875 C 43.796875 -16.828125 44.5 -14.539062 44.5 -11.8125 C 44.5 -8.039062 43.046875 -5.128906 40.140625 -3.078125 C 37.242188 -1.023438 33.019531 0 27.46875 0 L 5.84375 0 L 5.84375 -43.515625 L 26.234375 -43.515625 C 31.367188 -43.515625 35.320312 -42.507812 38.09375 -40.5 C 40.875 -38.488281 42.265625 -35.722656 42.265625 -32.203125 C 42.265625 -30.046875 41.765625 -28.140625 40.765625 -26.484375 C 39.773438 -24.828125 38.410156 -23.539062 36.671875 -22.625 Z M 13.921875 -37.171875 L 13.921875 -25.171875 L 25.359375 -25.171875 C 28.179688 -25.171875 30.347656 -25.675781 31.859375 -26.6875 C 33.367188 -27.707031 34.125 -29.191406 34.125 -31.140625 C 34.125 -33.128906 33.367188 -34.628906 31.859375 -35.640625 C 30.347656 -36.660156 28.179688 -37.171875 25.359375 -37.171875 Z M 26.96875 -6.34375 C 33.226562 -6.34375 36.359375 -8.4375 36.359375 -12.625 C 36.359375 -16.800781 33.226562 -18.890625 26.96875 -18.890625 L 13.921875 -18.890625 L 13.921875 -6.34375 Z M 26.96875 -6.34375 "/></g></g></g><g fill="#ffffff" fill-opacity="1"><g transform="translate(184.478019, 209.25145)"><g><path d="M 34.25 -6.84375 L 34.25 0 L 2.171875 0 L 2.171875 -5.40625 L 19.453125 -21.8125 C 21.398438 -23.675781 22.710938 -25.300781 23.390625 -26.6875 C 24.078125 -28.082031 24.421875 -29.460938 24.421875 -30.828125 C 24.421875 -32.859375 23.738281 -34.410156 22.375 -35.484375 C 21.007812 -36.566406 19 -37.109375 16.34375 -37.109375 C 11.914062 -37.109375 8.519531 -35.59375 6.15625 -32.5625 L 0.5 -36.921875 C 2.195312 -39.203125 4.484375 -40.972656 7.359375 -42.234375 C 10.242188 -43.492188 13.46875 -44.125 17.03125 -44.125 C 21.75 -44.125 25.515625 -43.003906 28.328125 -40.765625 C 31.148438 -38.535156 32.5625 -35.492188 32.5625 -31.640625 C 32.5625 -29.273438 32.066406 -27.054688 31.078125 -24.984375 C 30.085938 -22.910156 28.179688 -20.550781 25.359375 -17.90625 L 13.734375 -6.84375 Z M 34.25 -6.84375 "/></g></g></g><g fill="#ffffff" fill-opacity="1"><g transform="translate(211.88759, 209.25145)"><g><path d="M 36.671875 -22.625 C 39.078125 -21.832031 40.984375 -20.515625 42.390625 -18.671875 C 43.796875 -16.828125 44.5 -14.539062 44.5 -11.8125 C 44.5 -8.039062 43.046875 -5.128906 40.140625 -3.078125 C 37.242188 -1.023438 33.019531 0 27.46875 0 L 5.84375 0 L 5.84375 -43.515625 L 26.234375 -43.515625 C 31.367188 -43.515625 35.320312 -42.507812 38.09375 -40.5 C 40.875 -38.488281 42.265625 -35.722656 42.265625 -32.203125 C 42.265625 -30.046875 41.765625 -28.140625 40.765625 -26.484375 C 39.773438 -24.828125 38.410156 -23.539062 36.671875 -22.625 Z M 13.921875 -37.171875 L 13.921875 -25.171875 L 25.359375 -25.171875 C 28.179688 -25.171875 30.347656 -25.675781 31.859375 -26.6875 C 33.367188 -27.707031 34.125 -29.191406 34.125 -31.140625 C 34.125 -33.128906 33.367188 -34.628906 31.859375 -35.640625 C 30.347656 -36.660156 28.179688 -37.171875 25.359375 -37.171875 Z M 26.96875 -6.34375 C 33.226562 -6.34375 36.359375 -8.4375 36.359375 -12.625 C 36.359375 -16.800781 33.226562 -18.890625 26.96875 -18.890625 L 13.921875 -18.890625 L 13.921875 -6.34375 Z M 26.96875 -6.34375 "/></g></g></g></svg>